<?xml version="1.0" encoding="UTF-8" standalone="no"?><!DOCTYPE svg PUBLIC "-//W3C//DTD SVG 1.1//EN" "http://www.w3.org/Graphics/SVG/1.1/DTD/svg11.dtd"><svg width="100%" height="100%" viewBox="0 0 3334 3334" version="1.1" xmlns="http://www.w3.org/2000/svg" xmlns:xlink="http://www.w3.org/1999/xlink" xml:space="preserve" xmlns:serif="http://www.serif.com/" style="fill-rule:evenodd;clip-rule:evenodd;stroke-linejoin:round;stroke-miterlimit:2;"><g id="background"><circle id="circle" cx="1663.25" cy="1667.49" r="1657.51" style="fill:url(#_Linear1);"/><g><path d="M2360.02,1668.52c-135.962,38.918 -254.487,58.377 -355.574,58.377c-178.419,0 -315.266,-50.796 -410.54,-152.389c-95.275,-101.592 -142.912,-247.158 -142.912,-436.696c-0,-186.001 48.269,-330.682 144.807,-434.043c96.538,-103.362 231.995,-155.043 406.37,-155.043c114.229,0 233.006,16.932 356.333,50.797l-0,147.082c-154.664,-52.566 -273.188,-78.848 -355.574,-78.848c-121.305,-0 -215.442,41.193 -282.413,123.579c-66.97,82.386 -100.455,198.383 -100.455,347.992c-0,148.093 35.886,263.206 107.658,345.339c71.772,82.134 172.353,123.2 301.745,123.2c53.071,0 110.438,-9.35 172.101,-28.051l-0,-365.431l158.454,0l0,454.135Z" style="fill:#fff;fill-rule:nonzero;stroke:#fff;stroke-width:4.17px;"/><path d="M963.002,1671.86c134.478,38.919 251.709,58.378 351.692,58.378c176.472,-0 311.825,-50.796 406.059,-152.389c94.235,-101.593 141.352,-247.158 141.352,-436.697c0,-186 -47.742,-330.681 -143.226,-434.043c-95.485,-103.361 -229.463,-155.042 -401.935,-155.042c-112.982,-0 -230.463,16.932 -352.443,50.796l0,147.082c152.975,-52.565 270.206,-78.848 351.693,-78.848c119.981,0 213.091,41.193 279.33,123.579c66.239,82.386 99.359,198.384 99.359,347.993c-0,148.092 -35.495,263.205 -106.483,345.339c-70.989,82.133 -170.472,123.2 -298.452,123.2c-52.491,-0 -109.232,-9.351 -170.222,-28.052l0,-365.43l-156.724,-0l-0,454.134Z" style="fill:#fff;fill-rule:nonzero;stroke:#fff;stroke-width:4.17px;"/></g></g><g id="core"><text x="442.402px" y="2618.44px" style="font-family:'LucidaGrande', 'Lucida Grande', sans-serif;font-weight:500;font-size:909.47px;fill:#fff;">CORE</text></g><defs><linearGradient id="_Linear1" x1="0" y1="0" x2="1" y2="0" gradientUnits="userSpaceOnUse" gradientTransform="matrix(3315.02,0,0,3315.02,5.7331,1667.49)"><stop offset="0" style="stop-color:#3fbcff;stop-opacity:1"/><stop offset="0.49" style="stop-color:#b72dea;stop-opacity:1"/><stop offset="1" style="stop-color:#dd00e3;stop-opacity:1"/></linearGradient></defs></svg>